<svg xmlns="http://www.w3.org/2000/svg" version="1.1" xmlns:xlink="http://www.w3.org/1999/xlink" xmlns:svgjs="http://svgjs.com/svgjs" width="300" height="300" transform="matrix(1,0,0,1,0,0)">
  <path transform="matrix(1,0,0,1,148,149.33)" d="M-29.551,40.197A2.667729647246833,2.667729647246833,-31.579554223825976,0,0,-33,44L-33,44A6.867567248890298,6.867567248890298,287.89370924570426,0,0,-21.923,44.784L36,-24A40.2926740955269,40.2926740955269,44.14810946133442,0,1,107.013,-0.89L108.971,26.795A48.85778445060814,48.85778445060814,59.5377355167873,0,1,38.5,74ZM-20.036,-45.69A2.667729647264135,2.667729647264135,-31.579554223945202,0,0,-21.605,-50.579L-21.605,-50.579A6.867567248891009,6.867567248891009,-72.10629075416443,0,0,-27.822,-41.378L2.785,43.177A40.292674095539674,40.292674095539674,44.14810946135099,0,1,-52.736,93.12L-77.691,80.974A48.85778445059645,48.85778445059645,59.53773551675862,0,1,-83.336,-3.658ZM49.587,5.493A2.6677296472594185,2.6677296472594185,328.4204457760067,0,0,54.605,6.579L54.605,6.579A6.86756724885982,6.86756724885982,-72.10629075410058,0,0,49.746,-3.406L-38.785,-19.177A40.292674095526806,40.292674095526806,44.14810946134147,0,1,-54.277,-92.231L-31.281,-107.769A48.85778445056669,48.85778445056669,59.537735516752406,0,1,44.836,-70.342Z"/>
</svg>